# This file uses centimeters as units for non-parametric coordinates.

g default
v 5.485114 0.000000 -14.500000
v 14.999996 0.000000 -14.500000
v 5.485118 10.000000 -14.500000
v 14.999995 10.000000 -14.500000
v 5.485114 10.000000 -15.500000
v 15.000000 10.000000 -15.500000
v 5.485113 0.000000 -15.500000
v 14.999996 0.000000 -15.500000
v 5.485118 9.000000 -15.500000
v 5.485114 9.000000 -14.500000
v 14.999996 9.000000 -14.500000
v 15.000000 9.000000 -15.500000
v 8.495592 3.000000 -15.500000
v 8.495590 3.000000 -14.500000
v 14.999996 3.000000 -14.500000
v 14.999997 3.000000 -15.500000
v 8.495593 6.000000 -15.500000
v 8.495590 6.000000 -14.500000
v 14.999996 6.000000 -14.500000
v 14.999999 6.000000 -15.500000
v 9.212364 9.000000 -15.500000
v 9.212360 10.000000 -15.500000
v 9.212364 10.000000 -14.500000
v 9.212360 9.000000 -14.500000
v 9.212360 6.000000 -14.500000
v 9.212360 3.000000 -14.500000
v 9.212360 0.000000 -14.500000
v 9.212359 0.000000 -15.500000
v 9.212361 3.000000 -15.500000
v 9.212362 6.000000 -15.500000
v 0.000000 9.000000 -15.500000
v 0.000000 9.000000 -14.500000
v 0.000000 10.000000 -14.500000
v 0.000000 10.000000 -15.500000
v -5.485115 0.000000 -14.500000
v -14.999996 0.000000 -14.500000
v -5.485119 10.000000 -14.500000
v -14.999996 10.000000 -14.500000
v -5.485115 10.000000 -15.500000
v -15.000000 10.000000 -15.500000
v -5.485113 0.000000 -15.500000
v -14.999996 0.000000 -15.500000
v -5.485119 9.000000 -15.500000
v -5.485115 9.000000 -14.500000
v -14.999996 9.000000 -14.500000
v -15.000000 9.000000 -15.500000
v -8.495592 3.000000 -15.500000
v -8.495590 3.000000 -14.500000
v -14.999996 3.000000 -14.500000
v -14.999996 3.000000 -15.500000
v -8.495594 6.000000 -15.500000
v -8.495590 6.000000 -14.500000
v -14.999996 6.000000 -14.500000
v -15.000000 6.000000 -15.500000
v -9.212364 9.000000 -15.500000
v -9.212360 10.000000 -15.500000
v -9.212364 10.000000 -14.500000
v -9.212360 9.000000 -14.500000
v -9.212360 6.000000 -14.500000
v -9.212360 3.000000 -14.500000
v -9.212360 0.000000 -14.500000
v -9.212360 0.000000 -15.500000
v -9.212360 3.000000 -15.500000
v -9.212362 6.000000 -15.500000
vt 0.510420 0.081464
vt 0.510420 0.114665
vt 0.477219 0.114665
vt 0.477219 0.081464
vt 0.610021 0.081464
vt 0.610021 0.114665
vt 0.709623 0.081464
vt 0.709623 0.114665
vt 0.809225 0.081464
vt 0.809225 0.114665
vt 0.389978 0.225569
vt 0.389978 0.258769
vt 0.290377 0.258769
vt 0.290377 0.225569
vt 0.489580 0.225569
vt 0.489580 0.258769
vt 0.190775 0.258769
vt 0.190775 0.225569
vt 0.510420 0.154898
vt 0.477219 0.154898
vt 0.477219 0.121698
vt 0.510420 0.121698
vt 0.610021 0.154898
vt 0.610021 0.121698
vt 0.709623 0.154898
vt 0.709623 0.121698
vt 0.809225 0.154898
vt 0.809225 0.121698
vt 0.389978 0.219811
vt 0.290377 0.219811
vt 0.290377 0.186611
vt 0.389978 0.186611
vt 0.190775 0.219811
vt 0.190775 0.186611
vt 0.489580 0.219811
vt 0.489580 0.186611
vt 0.775337 0.949864
vt 0.948317 0.949864
vt 0.948317 0.979752
vt 0.775337 0.979752
vt 0.663938 0.949864
vt 0.663938 0.979752
vt 0.500000 0.979752
vt 0.500000 0.949864
vt 0.336062 0.949864
vt 0.336062 0.979752
vt 0.224663 0.979752
vt 0.224663 0.949864
vt 0.051683 0.979752
vt 0.051683 0.949864
vt 0.617072 0.161931
vt 0.809225 0.161931
vt 0.809225 0.195132
vt 0.617072 0.195132
vt 0.493325 0.161931
vt 0.493325 0.195132
vt 0.809225 0.041231
vt 0.809225 0.074432
vt 0.627116 0.074432
vt 0.627116 0.041231
vt 0.445007 0.041231
vt 0.445007 0.074432
vt 0.685478 0.202164
vt 0.685478 0.235365
vt 0.493325 0.235365
vt 0.493325 0.202164
vt 0.809225 0.202164
vt 0.809225 0.235365
vt 0.775337 0.589238
vt 0.948317 0.589238
vt 0.948317 0.619126
vt 0.775337 0.619126
vt 0.775337 0.499575
vt 0.948317 0.499575
vt 0.663938 0.589238
vt 0.663938 0.619126
vt 0.775337 0.409911
vt 0.948317 0.409912
vt 0.753914 0.499575
vt 0.500000 0.619126
vt 0.500000 0.589238
vt 0.775337 0.320248
vt 0.948317 0.320248
vt 0.753914 0.409911
vt 0.336062 0.589238
vt 0.336062 0.619126
vt 0.663938 0.320248
vt 0.224663 0.619126
vt 0.224663 0.589238
vt 0.051683 0.619126
vt 0.051683 0.589238
vt 0.246086 0.499575
vt 0.224663 0.499575
vt 0.051683 0.499575
vt 0.246086 0.409911
vt 0.224663 0.409911
vt 0.051683 0.409911
vt 0.336062 0.320248
vt 0.224663 0.320248
vt 0.051683 0.320248
vt 0.224663 0.934203
vt 0.051683 0.934203
vt 0.051683 0.904315
vt 0.224663 0.904315
vt 0.224663 0.814652
vt 0.051683 0.814652
vt 0.336062 0.934203
vt 0.336062 0.904315
vt 0.246086 0.814652
vt 0.051683 0.724989
vt 0.224663 0.724988
vt 0.500000 0.904315
vt 0.500000 0.934203
vt 0.246086 0.724989
vt 0.051683 0.635325
vt 0.224663 0.635325
vt 0.663938 0.934203
vt 0.663938 0.904315
vt 0.336062 0.635325
vt 0.775337 0.904315
vt 0.775337 0.934203
vt 0.753914 0.814652
vt 0.775337 0.814652
vt 0.948317 0.904315
vt 0.948317 0.934203
vt 0.753914 0.724988
vt 0.775337 0.724989
vt 0.948317 0.814652
vt 0.663938 0.635325
vt 0.775337 0.635325
vt 0.948317 0.724988
vt 0.948317 0.635325
vn 0.000000 0.000000 1.000000
vn 0.000000 0.000000 1.000000
vn 0.000000 0.000000 1.000000
vn 0.000000 0.000000 1.000000
vn 0.000000 1.000000 0.000000
vn 0.000000 1.000000 0.000000
vn 0.000000 1.000000 0.000000
vn 0.000000 1.000000 0.000000
vn 0.000000 0.000000 -1.000000
vn 0.000000 0.000000 -1.000000
vn 0.000000 0.000000 -1.000000
vn 0.000000 0.000000 -1.000000
vn 0.000000 -1.000000 -0.000000
vn 0.000000 -1.000000 -0.000000
vn 0.000000 -1.000000 -0.000000
vn 0.000000 -1.000000 -0.000000
vn 1.000000 0.000000 0.000004
vn 1.000000 0.000000 0.000004
vn 1.000000 0.000000 0.000004
vn 1.000000 0.000000 0.000004
vn -0.893802 -0.448461 -0.000003
vn -0.893802 -0.448462 -0.000003
vn -0.705873 -0.708338 -0.000002
vn -0.705873 -0.708338 -0.000002
vn 0.000000 0.000000 1.000000
vn 0.000000 0.000000 1.000000
vn 1.000000 -0.000000 0.000003
vn 1.000000 -0.000000 0.000003
vn 0.000000 0.000000 -1.000000
vn 0.000000 0.000000 -1.000000
vn -0.705873 0.708338 -0.000000
vn -0.705873 0.708338 -0.000000
vn -0.893802 0.448462 -0.000001
vn -0.893802 0.448462 -0.000001
vn 0.000000 0.000000 1.000000
vn 0.000000 0.000000 1.000000
vn 0.000000 0.000000 1.000000
vn 0.000000 0.000000 1.000000
vn 1.000000 -0.000000 0.000000
vn 1.000000 -0.000000 0.000000
vn 1.000000 -0.000000 0.000001
vn 1.000000 -0.000000 0.000001
vn 0.000000 0.000000 -1.000000
vn 0.000000 0.000000 -1.000000
vn 0.000000 0.000000 -1.000000
vn 0.000000 0.000000 -1.000000
vn 0.000000 0.000000 -1.000000
vn 0.000000 0.000000 -1.000000
vn 0.000000 1.000000 0.000000
vn 0.000000 1.000000 0.000000
vn 0.000000 0.000000 1.000000
vn 0.000000 0.000000 1.000000
vn 0.000000 0.000000 1.000000
vn 0.000000 0.000000 1.000000
vn 0.000000 0.000000 1.000000
vn 0.000000 -1.000000 -0.000000
vn 0.000000 -1.000000 -0.000000
vn 0.000000 0.000000 -1.000000
vn 0.000000 0.000000 -1.000000
vn 0.000000 0.000000 -1.000000
vn 0.000000 -1.000000 0.000000
vn 0.000000 -1.000000 0.000000
vn 0.000000 -1.000000 0.000000
vn 0.000000 -1.000000 0.000000
vn 0.000000 0.000000 1.000000
vn 0.000000 0.000000 1.000000
vn 0.000000 1.000000 0.000000
vn 0.000000 1.000000 0.000000
vn 0.000000 0.000000 -1.000000
vn 0.000000 0.000000 -1.000000
vn 0.000000 0.000000 1.000000
vn 0.000000 0.000000 1.000000
vn 0.000000 0.000000 1.000000
vn 0.000000 0.000000 1.000000
vn 0.000000 1.000000 0.000000
vn 0.000000 1.000000 0.000000
vn 0.000000 1.000000 0.000000
vn 0.000000 1.000000 0.000000
vn 0.000000 0.000000 -1.000000
vn 0.000000 0.000000 -1.000000
vn 0.000000 0.000000 -1.000000
vn 0.000000 0.000000 -1.000000
vn 0.000000 -1.000000 0.000000
vn 0.000000 -1.000000 0.000000
vn 0.000000 -1.000000 0.000000
vn 0.000000 -1.000000 0.000000
vn -1.000000 0.000000 0.000004
vn -1.000000 0.000000 0.000004
vn -1.000000 0.000000 0.000004
vn -1.000000 0.000000 0.000004
vn 0.893802 -0.448461 -0.000003
vn 0.705873 -0.708338 -0.000003
vn 0.705873 -0.708338 -0.000003
vn 0.893802 -0.448462 -0.000003
vn 0.000000 0.000000 1.000000
vn 0.000000 0.000000 1.000000
vn -1.000000 -0.000000 0.000003
vn -1.000000 -0.000000 0.000003
vn 0.000000 0.000000 -1.000000
vn 0.000000 0.000000 -1.000000
vn 0.705873 0.708338 0.000000
vn 0.893802 0.448462 -0.000001
vn 0.893802 0.448462 -0.000001
vn 0.705873 0.708338 0.000000
vn 0.000000 0.000000 1.000000
vn 0.000000 0.000000 1.000000
vn 0.000000 0.000000 1.000000
vn 0.000000 0.000000 1.000000
vn -1.000000 0.000000 0.000000
vn -1.000000 -0.000000 0.000001
vn -1.000000 -0.000000 0.000001
vn -1.000000 0.000000 0.000000
vn 0.000000 0.000000 -1.000000
vn 0.000000 0.000000 -1.000000
vn 0.000000 0.000000 -1.000000
vn 0.000000 0.000000 -1.000000
vn 0.000000 0.000000 -1.000000
vn 0.000000 0.000000 -1.000000
vn 0.000000 1.000000 0.000000
vn 0.000000 1.000000 0.000000
vn 0.000000 0.000000 1.000000
vn 0.000000 0.000000 1.000000
vn 0.000000 0.000000 1.000000
vn 0.000000 0.000000 1.000000
vn 0.000000 0.000000 1.000000
vn 0.000000 -1.000000 0.000000
vn 0.000000 -1.000000 0.000000
vn 0.000000 0.000000 -1.000000
vn 0.000000 0.000000 -1.000000
vn 0.000000 0.000000 -1.000000
vn 0.000000 -1.000000 0.000000
vn 0.000000 -1.000000 0.000000
s 1
g pCube13
f 24/69/1 11/70/2 4/71/3 23/72/4
s 2
f 23/37/5 4/38/6 6/39/7 22/40/8
s 3
f 22/101/9 6/102/10 12/103/11 21/104/12
s 4
f 28/51/13 8/52/14 2/53/15 27/54/16
s 5
f 11/1/17 12/2/18 6/3/19 4/4/20
s 6
f 17/14/21 18/13/22 10/17/23 9/18/24
s 1
f 25/73/25 19/74/26 11/70/2 24/69/1
s 5
f 19/5/27 20/6/28 12/2/18 11/1/17
s 3
f 30/105/29 21/104/12 12/103/11 20/106/30
s 6
f 7/15/31 1/16/32 14/12/33 13/11/34
s 1
f 27/82/35 2/83/36 15/78/37 26/77/38
s 5
f 2/9/39 8/10/40 16/8/41 15/7/42
s 3
f 29/111/43 16/110/44 8/115/45 28/116/46
s 6
f 13/11/34 14/12/33 18/13/22 17/14/21
s 1
f 26/77/38 15/78/37 19/74/26 25/73/25
s 5
f 15/7/42 16/8/41 20/6/28 19/5/27
s 3
f 30/105/29 20/106/30 16/110/44 29/111/43
f 5/107/47 22/101/9 21/104/12 9/108/48
s 2
f 3/41/49 23/37/5 22/40/8 5/42/50
s 1
f 10/75/51 24/69/1 23/72/4 3/76/52
f 18/79/53 25/73/25 24/69/1 10/75/51
f 14/84/54 26/77/38 25/73/25 18/79/53
f 1/87/55 27/82/35 26/77/38 14/84/54
s 4
f 7/55/56 28/51/13 27/54/16 1/56/57
s 3
f 13/114/58 29/111/43 28/116/46 7/119/59
f 17/109/60 30/105/29 29/111/43 13/114/58
f 9/108/48 21/104/12 30/105/29 17/109/60
s 7
f 9/57/61 10/58/62 32/59/63 31/60/64
s 1
f 10/75/51 3/76/52 33/80/65 32/81/66
s 2
f 3/41/49 5/42/50 34/43/67 33/44/68
s 3
f 5/107/47 9/108/48 31/112/69 34/113/70
s 1
f 58/89/71 57/88/72 38/90/73 45/91/74
s 2
f 57/48/75 56/47/76 40/49/77 38/50/78
s 3
f 56/121/79 55/120/80 46/124/81 40/125/82
s 11
f 62/63/83 61/64/84 36/65/85 42/66/86
s 12
f 45/19/87 38/20/88 40/21/89 46/22/90
s 13
f 51/30/91 43/33/92 44/34/93 52/31/94
s 1
f 59/93/95 58/89/71 45/91/74 53/94/96
s 12
f 53/23/97 45/19/87 46/22/90 54/24/98
s 3
f 64/123/99 54/128/100 46/124/81 55/120/80
s 13
f 41/35/101 47/29/102 48/32/103 35/36/104
s 1
f 61/99/105 60/96/106 49/97/107 36/100/108
s 12
f 36/27/109 49/25/110 50/26/111 42/28/112
s 3
f 63/127/113 62/130/114 42/132/115 50/131/116
s 13
f 47/29/102 51/30/91 52/31/94 48/32/103
s 1
f 60/96/106 59/93/95 53/94/96 49/97/107
s 12
f 49/25/110 53/23/97 54/24/98 50/26/111
s 3
f 64/123/99 63/127/113 50/131/116 54/128/100
f 39/117/117 43/118/118 55/120/80 56/121/79
s 2
f 37/45/119 39/46/120 56/47/76 57/48/75
s 1
f 44/85/121 37/86/122 57/88/72 58/89/71
f 52/92/123 44/85/121 58/89/71 59/93/95
f 48/95/124 52/92/123 59/93/95 60/96/106
f 35/98/125 48/95/124 60/96/106 61/99/105
s 11
f 41/67/126 35/68/127 61/64/84 62/63/83
s 3
f 47/126/128 41/129/129 62/130/114 63/127/113
f 51/122/130 47/126/128 63/127/113 64/123/99
f 43/118/118 51/122/130 64/123/99 55/120/80
s 7
f 43/61/131 31/60/64 32/59/63 44/62/132
s 1
f 44/85/121 32/81/66 33/80/65 37/86/122
s 2
f 37/45/119 33/44/68 34/43/67 39/46/120
s 3
f 39/117/117 34/113/70 31/112/69 43/118/118
