# This file uses centimeters as units for non-parametric coordinates.

g default
v 0.494761 -5.000000 -14.666256
v 0.494761 -5.000000 -15.333744
v 0.494764 4.000000 -15.333744
v 0.494761 4.000000 -14.666256
v 3.505239 -2.000000 -15.333744
v 3.505238 -2.000000 -14.666256
v 3.505239 1.000000 -15.333744
v 3.505238 1.000000 -14.666256
v -5.485115 -5.000000 -14.666256
v -5.485113 -5.000000 -15.333744
v -5.485119 4.000000 -15.333744
v -5.485115 4.000000 -14.666256
v -8.495592 -2.000000 -15.333744
v -8.495590 -2.000000 -14.666256
v -8.495594 1.000000 -15.333744
v -8.495590 1.000000 -14.666256
vt 0.620268 0.430670
vt 0.689727 0.430670
vt 0.689727 0.446125
vt 0.620268 0.446125
vt 0.759187 0.430670
vt 0.759187 0.446125
vt 0.550808 0.430670
vt 0.550808 0.446125
vt 0.830429 0.439857
vt 0.830429 0.424403
vt 0.899888 0.424403
vt 0.899888 0.439857
vt 0.760970 0.439857
vt 0.760970 0.424403
vt 0.969348 0.424403
vt 0.969348 0.439857
vt 0.830448 0.458052
vt 0.830448 0.442597
vt 0.968901 0.442597
vt 0.968901 0.458052
vt 0.830448 0.476247
vt 0.830448 0.460792
vt 0.968901 0.460792
vt 0.968901 0.476247
vt 0.487631 0.075013
vt 0.637128 0.075013
vt 0.637128 0.299990
vt 0.487631 0.299990
vt 0.412369 0.224997
vt 0.412369 0.150005
vt 0.712390 0.224997
vt 0.712390 0.150005
vt 0.362872 0.675012
vt 0.512369 0.675012
vt 0.512369 0.899990
vt 0.362872 0.899990
vt 0.587631 0.750005
vt 0.587631 0.824997
vt 0.287610 0.824997
vt 0.287610 0.750005
vn 0.893802 0.448461 0.000003
vn 0.705873 0.708338 0.000003
vn 0.705873 0.708338 0.000003
vn 0.893802 0.448462 0.000003
vn 0.705873 -0.708338 0.000001
vn 0.893802 -0.448462 0.000002
vn 0.893802 -0.448462 0.000002
vn 0.705873 -0.708338 0.000001
vn -0.893802 0.448461 0.000004
vn -0.893802 0.448462 0.000004
vn -0.705873 0.708338 0.000004
vn -0.705873 0.708338 0.000004
vn -0.705873 -0.708338 0.000000
vn -0.705873 -0.708338 0.000000
vn -0.893802 -0.448462 0.000002
vn -0.893802 -0.448462 0.000002
vn 0.000000 -1.000000 0.000000
vn 0.000000 -1.000000 0.000000
vn 0.000000 -1.000000 0.000000
vn 0.000000 -1.000000 0.000000
vn 0.000000 1.000000 0.000000
vn 0.000000 1.000000 0.000000
vn 0.000000 1.000000 0.000000
vn 0.000000 1.000000 0.000000
vn 0.000000 0.000000 -1.000000
vn 0.000000 0.000000 -1.000000
vn 0.000000 0.000000 -1.000000
vn 0.000000 0.000000 -1.000000
vn 0.000000 0.000000 1.000000
vn 0.000000 0.000000 1.000000
vn 0.000000 0.000000 1.000000
vn 0.000000 0.000000 1.000000
vn 0.000000 0.000000 -1.000000
vn 0.000000 0.000000 -1.000000
vn 0.000000 0.000000 -1.000000
vn 0.000000 0.000000 -1.000000
vn 0.000000 0.000000 -1.000000
vn 0.000000 0.000000 -1.000000
vn 0.000000 0.000000 -1.000000
vn 0.000000 0.000000 -1.000000
vn -0.000000 0.000000 1.000000
vn -0.000000 0.000000 1.000000
vn -0.000000 0.000000 1.000000
vn -0.000000 0.000000 1.000000
vn 0.000000 0.000000 1.000000
vn 0.000000 0.000000 1.000000
vn 0.000000 0.000000 1.000000
vn 0.000000 0.000000 1.000000
s 1
g pCube24
f 7/2/1 3/5/2 4/6/3 8/3/4
f 2/7/5 5/1/6 6/4/7 1/8/8
f 5/1/6 7/2/1 8/3/4 6/4/7
s 2
f 15/12/9 16/11/10 12/15/11 11/16/12
f 10/13/13 9/14/14 14/10/15 13/9/16
f 13/9/16 14/10/15 16/11/10 15/12/9
s off
f 2/17/17 1/18/18 9/19/19 10/20/20
f 4/21/21 3/22/22 11/23/23 12/24/24
f 2/25/25 10/26/26 11/27/27 3/28/28
f 9/33/29 1/34/30 4/35/31 12/36/32
f 7/29/33 5/30/34 2/25/35 3/28/36
f 15/31/37 11/27/38 10/26/39 13/32/40
f 6/37/41 8/38/42 4/35/43 1/34/44
f 12/36/45 16/39/46 14/40/47 9/33/48
g default
v 5.485114 -5.000000 -14.690102
v 5.485113 -5.000000 -15.309898
v 5.485118 4.000000 -15.309898
v 5.485114 4.000000 -14.690102
v 8.495592 -2.000000 -15.309898
v 8.495590 -2.000000 -14.690102
v 8.495593 1.000000 -15.309898
v 8.495590 1.000000 -14.690102
v 0.494760 -5.000000 -14.690102
v 0.494761 -5.000000 -15.309898
v 0.494762 4.000000 -15.309898
v 0.494766 4.000000 -14.690102
v 3.505238 -2.000000 -15.309898
v 3.505238 -2.000000 -14.690102
v 3.505238 1.000000 -15.309898
v 3.505238 1.000000 -14.690102
vt 0.132814 0.488667
vt 0.206693 0.488667
vt 0.206693 0.503930
vt 0.132814 0.503930
vt 0.280572 0.488667
vt 0.280572 0.503930
vt 0.058936 0.488667
vt 0.058936 0.503930
vt 0.132814 0.485512
vt 0.132814 0.470249
vt 0.206693 0.470249
vt 0.206693 0.485512
vt 0.058936 0.485512
vt 0.058936 0.470249
vt 0.280572 0.470249
vt 0.280572 0.485512
vt 0.282205 0.411268
vt 0.282205 0.396004
vt 0.405099 0.396004
vt 0.405099 0.411268
vt 0.282205 0.429041
vt 0.282205 0.413778
vt 0.405099 0.413778
vt 0.405099 0.429041
vt 0.287610 0.150005
vt 0.362872 0.075013
vt 0.487631 0.075013
vt 0.412369 0.150005
vt 0.487631 0.299990
vt 0.362872 0.299990
vt 0.287610 0.224997
vt 0.412369 0.224997
vt 0.512369 0.899990
vt 0.587631 0.824997
vt 0.712390 0.824997
vt 0.637128 0.899990
vt 0.587631 0.750005
vt 0.712390 0.750005
vt 0.512369 0.675012
vt 0.637128 0.675012
vn 0.893802 0.448461 0.000004
vn 0.705873 0.708338 0.000004
vn 0.705873 0.708338 0.000004
vn 0.893802 0.448462 0.000004
vn 0.705873 -0.708338 0.000000
vn 0.893802 -0.448462 0.000002
vn 0.893802 -0.448462 0.000002
vn 0.705873 -0.708338 0.000000
vn -0.893802 -0.448461 0.000001
vn -0.893802 -0.448461 0.000001
vn -0.705874 -0.708338 0.000002
vn -0.705874 -0.708338 0.000002
vn -0.705873 0.708338 -0.000001
vn -0.705873 0.708338 -0.000001
vn -0.893802 0.448462 -0.000001
vn -0.893802 0.448462 -0.000001
vn 0.000000 -1.000000 0.000001
vn 0.000000 -1.000000 0.000001
vn 0.000000 -1.000000 0.000001
vn 0.000000 -1.000000 0.000001
vn 0.000000 1.000000 0.000000
vn 0.000000 1.000000 0.000000
vn 0.000000 1.000000 0.000000
vn 0.000000 1.000000 0.000000
vn 0.000000 0.000000 -1.000000
vn 0.000000 0.000000 -1.000000
vn 0.000000 0.000000 -1.000000
vn 0.000000 0.000000 -1.000000
vn 0.000000 0.000000 1.000000
vn 0.000000 0.000000 1.000000
vn 0.000000 0.000000 1.000000
vn 0.000000 0.000000 1.000000
vn 0.000000 0.000000 1.000000
vn 0.000000 0.000000 1.000000
vn 0.000000 0.000000 1.000000
vn 0.000000 0.000000 1.000000
vn 0.000000 0.000000 -1.000000
vn 0.000000 0.000000 -1.000000
vn 0.000000 0.000000 -1.000000
vn 0.000000 0.000000 -1.000000
s 1
g pCube32
f 23/42/49 19/45/50 20/46/51 24/43/52
f 18/47/53 21/41/54 22/44/55 17/48/56
f 21/41/54 23/42/49 24/43/52 22/44/55
s 2
f 31/52/57 32/51/58 28/55/59 27/56/60
f 26/53/61 25/54/62 30/50/63 29/49/64
f 29/49/64 30/50/63 32/51/58 31/52/57
s off
f 18/57/65 17/58/66 25/59/67 26/60/68
f 20/61/69 19/62/70 27/63/71 28/64/72
s 3
f 21/65/73 18/66/74 26/67/75 29/68/76
s 4
f 28/73/77 32/74/78 24/75/79 20/76/80
f 24/75/79 32/74/78 30/77/81 22/78/82
f 22/78/82 30/77/81 25/79/83 17/80/84
s 3
f 27/69/85 19/70/86 23/71/87 31/72/88
f 31/72/88 23/71/87 21/65/73 29/68/76
g default
v 5.485114 -5.000000 -14.500000
v 14.999996 -5.000000 -14.500000
v 5.485118 5.000000 -14.500000
v 14.999995 5.000000 -14.500000
v 5.485114 5.000000 -15.500000
v 15.000000 5.000000 -15.500000
v 5.485113 -5.000000 -15.500000
v 14.999996 -5.000000 -15.500000
v 5.485118 4.000000 -15.500000
v 5.485114 4.000000 -14.500000
v 14.999996 4.000000 -14.500000
v 15.000000 4.000000 -15.500000
v 8.495592 -2.000000 -15.500000
v 8.495590 -2.000000 -14.500000
v 14.999996 -2.000000 -14.500000
v 14.999997 -2.000000 -15.500000
v 8.495593 1.000000 -15.500000
v 8.495590 1.000000 -14.500000
v 14.999996 1.000000 -14.500000
v 14.999999 1.000000 -15.500000
v 9.212364 4.000000 -15.500000
v 9.212360 5.000000 -15.500000
v 9.212364 5.000000 -14.500000
v 9.212360 4.000000 -14.500000
v 9.212360 1.000000 -14.500000
v 9.212360 -2.000000 -14.500000
v 9.212360 -5.000000 -14.500000
v 9.212359 -5.000000 -15.500000
v 9.212361 -2.000000 -15.500000
v 9.212362 1.000000 -15.500000
v 0.000000 4.000000 -15.500000
v 0.000000 4.000000 -14.500000
v 0.000000 5.000000 -14.500000
v 0.000000 5.000000 -15.500000
v -5.485115 -5.000000 -14.500000
v -14.999996 -5.000000 -14.500000
v -5.485119 5.000000 -14.500000
v -14.999996 5.000000 -14.500000
v -5.485115 5.000000 -15.500000
v -15.000000 5.000000 -15.500000
v -5.485113 -5.000000 -15.500000
v -14.999996 -5.000000 -15.500000
v -5.485119 4.000000 -15.500000
v -5.485115 4.000000 -14.500000
v -14.999996 4.000000 -14.500000
v -15.000000 4.000000 -15.500000
v -8.495592 -2.000000 -15.500000
v -8.495590 -2.000000 -14.500000
v -14.999996 -2.000000 -14.500000
v -14.999996 -2.000000 -15.500000
v -8.495594 1.000000 -15.500000
v -8.495590 1.000000 -14.500000
v -14.999996 1.000000 -14.500000
v -15.000000 1.000000 -15.500000
v -9.212364 4.000000 -15.500000
v -9.212360 5.000000 -15.500000
v -9.212364 5.000000 -14.500000
v -9.212360 4.000000 -14.500000
v -9.212360 1.000000 -14.500000
v -9.212360 -2.000000 -14.500000
v -9.212360 -5.000000 -14.500000
v -9.212360 -5.000000 -15.500000
v -9.212360 -2.000000 -15.500000
v -9.212362 1.000000 -15.500000
vt 0.684333 0.531088
vt 0.684333 0.516258
vt 0.699163 0.516258
vt 0.699163 0.531088
vt 0.639843 0.531088
vt 0.639843 0.516258
vt 0.595352 0.531088
vt 0.595352 0.516258
vt 0.550861 0.531088
vt 0.550861 0.516258
vt 0.738133 0.466719
vt 0.738133 0.451889
vt 0.782623 0.451889
vt 0.782623 0.466719
vt 0.693642 0.466719
vt 0.693642 0.451889
vt 0.827114 0.451889
vt 0.827114 0.466719
vt 0.684333 0.498286
vt 0.699163 0.498286
vt 0.699163 0.513116
vt 0.684333 0.513116
vt 0.639843 0.498286
vt 0.639843 0.513116
vt 0.595352 0.498286
vt 0.595352 0.513116
vt 0.550861 0.498286
vt 0.550861 0.513116
vt 0.738133 0.469290
vt 0.782623 0.469290
vt 0.782623 0.484121
vt 0.738133 0.484121
vt 0.827114 0.469290
vt 0.827114 0.484121
vt 0.693642 0.469290
vt 0.693642 0.484121
vt 0.144767 0.452703
vt 0.058936 0.452703
vt 0.058935 0.437873
vt 0.144767 0.437873
vt 0.200043 0.452703
vt 0.200043 0.437873
vt 0.281389 0.437873
vt 0.281389 0.452703
vt 0.362734 0.452703
vt 0.362734 0.437873
vt 0.418010 0.437873
vt 0.418010 0.452703
vt 0.503842 0.437873
vt 0.503842 0.452703
vt 0.636693 0.495145
vt 0.550861 0.495145
vt 0.550861 0.480315
vt 0.636693 0.480315
vt 0.691969 0.495145
vt 0.691969 0.480315
vt 0.550861 0.549060
vt 0.550861 0.534230
vt 0.632207 0.534230
vt 0.632207 0.549060
vt 0.713552 0.549060
vt 0.713552 0.534230
vt 0.606137 0.477173
vt 0.606137 0.462343
vt 0.691969 0.462343
vt 0.691969 0.477173
vt 0.550861 0.477173
vt 0.550861 0.462343
vt 0.269691 0.324987
vt 0.125000 0.324987
vt 0.125000 0.299990
vt 0.269691 0.299990
vt 0.269691 0.224997
vt 0.125000 0.224997
vt 0.269691 0.150005
vt 0.125000 0.150005
vt 0.125000 0.075013
vt 0.269691 0.075013
vt 0.362872 0.324987
vt 0.362872 0.299990
vt 0.287610 0.150005
vt 0.362872 0.075013
vt 0.287610 0.224997
vt 0.500000 0.299990
vt 0.500000 0.324987
vt 0.730309 0.324987
vt 0.730309 0.299990
vt 0.875000 0.299990
vt 0.875000 0.324987
vt 0.730309 0.224997
vt 0.875000 0.224997
vt 0.730309 0.150005
vt 0.730309 0.075013
vt 0.875000 0.075013
vt 0.875000 0.150005
vt 0.637128 0.324987
vt 0.637128 0.299990
vt 0.712390 0.150005
vt 0.637128 0.075013
vt 0.712390 0.224997
vt 0.730309 0.899990
vt 0.875000 0.899990
vt 0.875000 0.924987
vt 0.730309 0.924987
vt 0.730309 0.824997
vt 0.875000 0.824997
vt 0.730309 0.675012
vt 0.875000 0.675012
vt 0.875000 0.750005
vt 0.730309 0.750005
vt 0.637128 0.899990
vt 0.637128 0.924987
vt 0.712390 0.824997
vt 0.712390 0.750005
vt 0.637128 0.675012
vt 0.500000 0.924987
vt 0.500000 0.899990
vt 0.269691 0.899990
vt 0.269691 0.924987
vt 0.125000 0.924987
vt 0.125000 0.899990
vt 0.269691 0.824997
vt 0.125000 0.824997
vt 0.269691 0.675012
vt 0.269691 0.750005
vt 0.125000 0.750005
vt 0.125000 0.675012
vt 0.362872 0.899990
vt 0.362872 0.924987
vt 0.287610 0.824997
vt 0.287610 0.750005
vt 0.362872 0.675012
vn 0.000000 0.000000 1.000000
vn 0.000000 0.000000 1.000000
vn 0.000000 0.000000 1.000000
vn 0.000000 0.000000 1.000000
vn 0.000000 1.000000 0.000000
vn 0.000000 1.000000 0.000000
vn 0.000000 1.000000 0.000000
vn 0.000000 1.000000 0.000000
vn 0.000000 0.000000 -1.000000
vn 0.000000 0.000000 -1.000000
vn 0.000000 0.000000 -1.000000
vn 0.000000 0.000000 -1.000000
vn 0.000000 -1.000000 -0.000000
vn 0.000000 -1.000000 -0.000000
vn 0.000000 -1.000000 -0.000000
vn 0.000000 -1.000000 -0.000000
vn 1.000000 0.000000 0.000004
vn 1.000000 0.000000 0.000004
vn 1.000000 0.000000 0.000004
vn 1.000000 0.000000 0.000004
vn -0.893802 -0.448461 -0.000003
vn -0.893802 -0.448462 -0.000003
vn -0.705873 -0.708338 -0.000002
vn -0.705873 -0.708338 -0.000002
vn 0.000000 0.000000 1.000000
vn 0.000000 0.000000 1.000000
vn 1.000000 -0.000000 0.000003
vn 1.000000 -0.000000 0.000003
vn 0.000000 0.000000 -1.000000
vn 0.000000 0.000000 -1.000000
vn -0.705873 0.708338 -0.000000
vn -0.705873 0.708338 -0.000000
vn -0.893802 0.448462 -0.000001
vn -0.893802 0.448462 -0.000001
vn 0.000000 0.000000 1.000000
vn 0.000000 0.000000 1.000000
vn 0.000000 0.000000 1.000000
vn 0.000000 0.000000 1.000000
vn 1.000000 -0.000000 0.000000
vn 1.000000 -0.000000 0.000000
vn 1.000000 -0.000000 0.000001
vn 1.000000 -0.000000 0.000001
vn 0.000000 0.000000 -1.000000
vn 0.000000 0.000000 -1.000000
vn 0.000000 0.000000 -1.000000
vn 0.000000 0.000000 -1.000000
vn 0.000000 0.000000 -1.000000
vn 0.000000 0.000000 -1.000000
vn 0.000000 1.000000 0.000000
vn 0.000000 1.000000 0.000000
vn 0.000000 0.000000 1.000000
vn 0.000000 0.000000 1.000000
vn 0.000000 0.000000 1.000000
vn 0.000000 0.000000 1.000000
vn 0.000000 0.000000 1.000000
vn 0.000000 -1.000000 -0.000000
vn 0.000000 -1.000000 -0.000000
vn 0.000000 0.000000 -1.000000
vn 0.000000 0.000000 -1.000000
vn 0.000000 0.000000 -1.000000
vn 0.000000 -1.000000 0.000000
vn 0.000000 -1.000000 0.000000
vn 0.000000 -1.000000 0.000000
vn 0.000000 -1.000000 0.000000
vn 0.000000 0.000000 1.000000
vn 0.000000 0.000000 1.000000
vn 0.000000 1.000000 0.000000
vn 0.000000 1.000000 0.000000
vn 0.000000 0.000000 -1.000000
vn 0.000000 0.000000 -1.000000
vn 0.000000 0.000000 1.000000
vn 0.000000 0.000000 1.000000
vn 0.000000 0.000000 1.000000
vn 0.000000 0.000000 1.000000
vn 0.000000 1.000000 0.000000
vn 0.000000 1.000000 0.000000
vn 0.000000 1.000000 0.000000
vn 0.000000 1.000000 0.000000
vn 0.000000 0.000000 -1.000000
vn 0.000000 0.000000 -1.000000
vn 0.000000 0.000000 -1.000000
vn 0.000000 0.000000 -1.000000
vn 0.000000 -1.000000 0.000000
vn 0.000000 -1.000000 0.000000
vn 0.000000 -1.000000 0.000000
vn 0.000000 -1.000000 0.000000
vn -1.000000 0.000000 0.000004
vn -1.000000 0.000000 0.000004
vn -1.000000 0.000000 0.000004
vn -1.000000 0.000000 0.000004
vn 0.893802 -0.448461 -0.000003
vn 0.705873 -0.708338 -0.000003
vn 0.705873 -0.708338 -0.000003
vn 0.893802 -0.448462 -0.000003
vn 0.000000 0.000000 1.000000
vn 0.000000 0.000000 1.000000
vn -1.000000 -0.000000 0.000003
vn -1.000000 -0.000000 0.000003
vn 0.000000 0.000000 -1.000000
vn 0.000000 0.000000 -1.000000
vn 0.705873 0.708338 0.000000
vn 0.893802 0.448462 -0.000001
vn 0.893802 0.448462 -0.000001
vn 0.705873 0.708338 0.000000
vn 0.000000 0.000000 1.000000
vn 0.000000 0.000000 1.000000
vn 0.000000 0.000000 1.000000
vn 0.000000 0.000000 1.000000
vn -1.000000 0.000000 0.000000
vn -1.000000 -0.000000 0.000001
vn -1.000000 -0.000000 0.000001
vn -1.000000 0.000000 0.000000
vn 0.000000 0.000000 -1.000000
vn 0.000000 0.000000 -1.000000
vn 0.000000 0.000000 -1.000000
vn 0.000000 0.000000 -1.000000
vn 0.000000 0.000000 -1.000000
vn 0.000000 0.000000 -1.000000
vn 0.000000 1.000000 0.000000
vn 0.000000 1.000000 0.000000
vn 0.000000 0.000000 1.000000
vn 0.000000 0.000000 1.000000
vn 0.000000 0.000000 1.000000
vn 0.000000 0.000000 1.000000
vn 0.000000 0.000000 1.000000
vn 0.000000 -1.000000 0.000000
vn 0.000000 -1.000000 0.000000
vn 0.000000 0.000000 -1.000000
vn 0.000000 0.000000 -1.000000
vn 0.000000 0.000000 -1.000000
vn 0.000000 -1.000000 0.000000
vn 0.000000 -1.000000 0.000000
s 1
g pCube13
f 56/181/89 43/182/90 36/183/91 55/184/92
s 2
f 55/117/93 36/118/94 38/119/95 54/120/96
s 3
f 54/149/97 38/150/98 44/151/99 53/152/100
s 4
f 60/131/101 40/132/102 34/133/103 59/134/104
s 5
f 43/81/105 44/82/106 38/83/107 36/84/108
s 6
f 49/94/109 50/93/110 42/97/111 41/98/112
s 1
f 57/185/113 51/186/114 43/182/90 56/181/89
s 5
f 51/85/115 52/86/116 44/82/106 43/81/105
s 3
f 62/153/117 53/152/100 44/151/99 52/154/118
s 6
f 39/95/119 33/96/120 46/92/121 45/91/122
s 1
f 59/187/123 34/188/124 47/189/125 58/190/126
s 5
f 34/89/127 40/90/128 48/88/129 47/87/130
s 3
f 61/155/131 48/156/132 40/157/133 60/158/134
s 6
f 45/91/122 46/92/121 50/93/110 49/94/109
s 1
f 58/190/126 47/189/125 51/186/114 57/185/113
s 5
f 47/87/130 48/88/129 52/86/116 51/85/115
s 3
f 62/153/117 52/154/118 48/156/132 61/155/131
f 37/159/135 54/149/97 53/152/100 41/160/136
s 2
f 35/121/137 55/117/93 54/120/96 37/122/138
s 1
f 42/191/139 56/181/89 55/184/92 35/192/140
f 50/193/141 57/185/113 56/181/89 42/191/139
f 46/194/142 58/190/126 57/185/113 50/193/141
f 33/195/143 59/187/123 58/190/126 46/194/142
s 4
f 39/135/144 60/131/101 59/134/104 33/136/145
s 3
f 45/161/146 61/155/131 60/158/134 39/162/147
f 49/163/148 62/153/117 61/155/131 45/161/146
f 41/160/136 53/152/100 62/153/117 49/163/148
s 7
f 41/137/149 42/138/150 64/139/151 63/140/152
s 1
f 42/191/139 35/192/140 65/196/153 64/197/154
s 2
f 35/121/137 37/122/138 66/123/155 65/124/156
s 3
f 37/159/135 41/160/136 63/164/157 66/165/158
s 1
f 90/198/159 89/199/160 70/200/161 77/201/162
s 2
f 89/128/163 88/127/164 72/129/165 70/130/166
s 3
f 88/166/167 87/167/168 78/168/169 72/169/170
s 11
f 94/143/171 93/144/172 68/145/173 74/146/174
s 12
f 77/99/175 70/100/176 72/101/177 78/102/178
s 13
f 83/110/179 75/113/180 76/114/181 84/111/182
s 1
f 91/202/183 90/198/159 77/201/162 85/203/184
s 12
f 85/103/185 77/99/175 78/102/178 86/104/186
s 3
f 96/170/187 86/171/188 78/168/169 87/167/168
s 13
f 73/115/189 79/109/190 80/112/191 67/116/192
s 1
f 93/204/193 92/205/194 81/206/195 68/207/196
s 12
f 68/107/197 81/105/198 82/106/199 74/108/200
s 3
f 95/172/201 94/173/202 74/174/203 82/175/204
s 13
f 79/109/190 83/110/179 84/111/182 80/112/191
s 1
f 92/205/194 91/202/183 85/203/184 81/206/195
s 12
f 81/105/198 85/103/185 86/104/186 82/106/199
s 3
f 96/170/187 95/172/201 82/175/204 86/171/188
f 71/176/205 75/177/206 87/167/168 88/166/167
s 2
f 69/125/207 71/126/208 88/127/164 89/128/163
s 1
f 76/208/209 69/209/210 89/199/160 90/198/159
f 84/210/211 76/208/209 90/198/159 91/202/183
f 80/211/212 84/210/211 91/202/183 92/205/194
f 67/212/213 80/211/212 92/205/194 93/204/193
s 11
f 73/147/214 67/148/215 93/144/172 94/143/171
s 3
f 79/178/216 73/179/217 94/173/202 95/172/201
f 83/180/218 79/178/216 95/172/201 96/170/187
f 75/177/206 83/180/218 96/170/187 87/167/168
s 7
f 75/141/219 63/140/152 64/139/151 76/142/220
s 1
f 76/208/209 64/197/154 65/196/153 69/209/210
s 2
f 69/125/207 65/124/156 66/123/155 71/126/208
s 3
f 71/176/205 66/165/158 63/164/157 75/177/206
