# This file uses centimeters as units for non-parametric coordinates.

g default
v 5.485114 0.000000 -14.690102
v 5.485113 0.000000 -15.309898
v 5.485118 9.000000 -15.309898
v 5.485114 9.000000 -14.690102
v 8.495592 3.000000 -15.309898
v 8.495590 3.000000 -14.690102
v 8.495593 6.000000 -15.309898
v 8.495590 6.000000 -14.690102
v 0.494760 0.000000 -14.690102
v 0.494761 0.000000 -15.309898
v 0.494762 9.000000 -15.309898
v 0.494766 9.000000 -14.690102
v 3.505238 3.000000 -15.309898
v 3.505238 3.000000 -14.690102
v 3.505238 6.000000 -15.309898
v 3.505238 6.000000 -14.690102
vt 0.035994 0.167385
vt 0.035994 0.332779
vt 0.001824 0.332779
vt 0.001824 0.167385
vt 0.035994 0.498172
vt 0.001824 0.498172
vt 0.035994 0.001992
vt 0.001824 0.001992
vt 0.043057 0.167385
vt 0.077227 0.167385
vt 0.077227 0.332779
vt 0.043057 0.332779
vt 0.043057 0.001992
vt 0.077227 0.001992
vt 0.077227 0.498172
vt 0.043057 0.498172
vt 0.433140 0.501828
vt 0.467310 0.501828
vt 0.467310 0.776952
vt 0.433140 0.776952
vt 0.393351 0.501828
vt 0.427521 0.501828
vt 0.427521 0.776952
vt 0.393351 0.776952
vt 0.525205 0.332779
vt 0.359234 0.498172
vt 0.084110 0.498172
vt 0.250081 0.332779
vt 0.250081 0.167385
vt 0.525205 0.167385
vt 0.084110 0.001992
vt 0.359234 0.001992
vt 0.472929 0.998008
vt 0.638900 0.832615
vt 0.914024 0.832615
vt 0.748053 0.998008
vt 0.638900 0.667221
vt 0.914024 0.667221
vt 0.472929 0.501828
vt 0.748053 0.501828
vn 0.893802 0.448461 0.000004
vn 0.705873 0.708338 0.000004
vn 0.705873 0.708338 0.000004
vn 0.893802 0.448462 0.000004
vn 0.705873 -0.708338 0.000000
vn 0.893802 -0.448462 0.000002
vn 0.893802 -0.448462 0.000002
vn 0.705873 -0.708338 0.000000
vn -0.893802 -0.448461 0.000001
vn -0.893802 -0.448461 0.000001
vn -0.705874 -0.708338 0.000002
vn -0.705874 -0.708338 0.000002
vn -0.705873 0.708338 -0.000001
vn -0.705873 0.708338 -0.000001
vn -0.893802 0.448462 -0.000001
vn -0.893802 0.448462 -0.000001
vn 0.000000 -1.000000 0.000001
vn 0.000000 -1.000000 0.000001
vn 0.000000 -1.000000 0.000001
vn 0.000000 -1.000000 0.000001
vn 0.000000 1.000000 0.000000
vn 0.000000 1.000000 0.000000
vn 0.000000 1.000000 0.000000
vn 0.000000 1.000000 0.000000
vn 0.000000 0.000000 -1.000000
vn 0.000000 0.000000 -1.000000
vn 0.000000 0.000000 -1.000000
vn 0.000000 0.000000 -1.000000
vn 0.000000 0.000000 1.000000
vn 0.000000 0.000000 1.000000
vn 0.000000 0.000000 1.000000
vn 0.000000 0.000000 1.000000
vn 0.000000 0.000000 1.000000
vn 0.000000 0.000000 1.000000
vn 0.000000 0.000000 1.000000
vn 0.000000 0.000000 1.000000
vn 0.000000 0.000000 -1.000000
vn 0.000000 0.000000 -1.000000
vn 0.000000 0.000000 -1.000000
vn 0.000000 0.000000 -1.000000
s 1
g pCube32
f 7/2/1 3/5/2 4/6/3 8/3/4
f 2/7/5 5/1/6 6/4/7 1/8/8
f 5/1/6 7/2/1 8/3/4 6/4/7
s 2
f 15/12/9 16/11/10 12/15/11 11/16/12
f 10/13/13 9/14/14 14/10/15 13/9/16
f 13/9/16 14/10/15 16/11/10 15/12/9
s off
f 2/17/17 1/18/18 9/19/19 10/20/20
f 4/21/21 3/22/22 11/23/23 12/24/24
s 3
f 5/25/25 2/26/26 10/27/27 13/28/28
s 4
f 12/33/29 16/34/30 8/35/31 4/36/32
f 8/35/31 16/34/30 14/37/33 6/38/34
f 6/38/34 14/37/33 9/39/35 1/40/36
s 3
f 11/31/37 3/32/38 7/30/39 15/29/40
f 15/29/40 7/30/39 5/25/25 13/28/28
g default
v 0.494761 0.000000 -14.666256
v 0.494761 0.000000 -15.333744
v 0.494764 9.000000 -15.333744
v 0.494761 9.000000 -14.666256
v 3.505239 3.000000 -15.333744
v 3.505238 3.000000 -14.666256
v 3.505239 6.000000 -15.333744
v 3.505238 6.000000 -14.666256
v -5.485115 0.000000 -14.666256
v -5.485113 0.000000 -15.333744
v -5.485119 9.000000 -15.333744
v -5.485115 9.000000 -14.666256
v -8.495592 3.000000 -15.333744
v -8.495590 3.000000 -14.666256
v -8.495594 6.000000 -15.333744
v -8.495590 6.000000 -14.666256
vt 0.979154 0.158637
vt 0.979154 0.315385
vt 0.957173 0.315385
vt 0.957173 0.158637
vt 0.979154 0.472133
vt 0.957173 0.472133
vt 0.979154 0.001889
vt 0.957173 0.001889
vt 0.976028 0.632873
vt 0.998008 0.632873
vt 0.998008 0.789621
vt 0.976028 0.789621
vt 0.976028 0.476125
vt 0.998008 0.476125
vt 0.998008 0.946369
vt 0.976028 0.946369
vt 0.947913 0.632916
vt 0.969893 0.632916
vt 0.969893 0.945361
vt 0.947913 0.945361
vt 0.919797 0.632916
vt 0.941777 0.632916
vt 0.941777 0.945361
vt 0.919797 0.945361
vt 0.472236 0.159185
vt 0.472236 0.471629
vt 0.001992 0.471630
vt 0.001992 0.159184
vt 0.158740 0.628925
vt 0.315488 0.628925
vt 0.158740 0.001889
vt 0.315488 0.001889
vt 0.479680 0.471629
vt 0.479680 0.159184
vt 0.949925 0.159184
vt 0.949925 0.471629
vt 0.636428 0.001889
vt 0.793176 0.001889
vt 0.793176 0.628925
vt 0.636428 0.628925
vn 0.893802 0.448461 0.000003
vn 0.705873 0.708338 0.000003
vn 0.705873 0.708338 0.000003
vn 0.893802 0.448462 0.000003
vn 0.705873 -0.708338 0.000001
vn 0.893802 -0.448462 0.000002
vn 0.893802 -0.448462 0.000002
vn 0.705873 -0.708338 0.000001
vn -0.893802 0.448461 0.000004
vn -0.893802 0.448462 0.000004
vn -0.705873 0.708338 0.000004
vn -0.705873 0.708338 0.000004
vn -0.705873 -0.708338 0.000000
vn -0.705873 -0.708338 0.000000
vn -0.893802 -0.448462 0.000002
vn -0.893802 -0.448462 0.000002
vn 0.000000 -1.000000 0.000000
vn 0.000000 -1.000000 0.000000
vn 0.000000 -1.000000 0.000000
vn 0.000000 -1.000000 0.000000
vn 0.000000 1.000000 0.000000
vn 0.000000 1.000000 0.000000
vn 0.000000 1.000000 0.000000
vn 0.000000 1.000000 0.000000
vn 0.000000 0.000000 -1.000000
vn 0.000000 0.000000 -1.000000
vn 0.000000 0.000000 -1.000000
vn 0.000000 0.000000 -1.000000
vn 0.000000 0.000000 1.000000
vn 0.000000 0.000000 1.000000
vn 0.000000 0.000000 1.000000
vn 0.000000 0.000000 1.000000
vn 0.000000 0.000000 -1.000000
vn 0.000000 0.000000 -1.000000
vn 0.000000 0.000000 -1.000000
vn 0.000000 0.000000 -1.000000
vn -0.000000 0.000000 -1.000000
vn -0.000000 0.000000 -1.000000
vn -0.000000 0.000000 -1.000000
vn -0.000000 0.000000 -1.000000
vn 0.000000 0.000000 1.000000
vn 0.000000 0.000000 1.000000
vn 0.000000 0.000000 1.000000
vn 0.000000 0.000000 1.000000
vn -0.000000 0.000000 1.000000
vn -0.000000 0.000000 1.000000
vn -0.000000 0.000000 1.000000
vn -0.000000 0.000000 1.000000
s 1
g pCube24
f 23/42/41 19/45/42 20/46/43 24/43/44
f 18/47/45 21/41/46 22/44/47 17/48/48
f 21/41/46 23/42/41 24/43/44 22/44/47
s 2
f 31/52/49 32/51/50 28/55/51 27/56/52
f 26/53/53 25/54/54 30/50/55 29/49/56
f 29/49/56 30/50/55 32/51/50 31/52/49
s off
f 18/57/57 17/58/58 25/59/59 26/60/60
f 20/61/61 19/62/62 27/63/63 28/64/64
f 18/65/65 26/66/66 27/67/67 19/68/68
f 25/73/69 17/74/70 20/75/71 28/76/72
f 23/71/73 21/72/74 18/65/75 19/68/76
f 31/69/77 27/67/78 26/66/79 29/70/80
f 22/77/81 24/78/82 20/75/83 17/74/84
f 28/76/85 32/79/86 30/80/87 25/73/88
