# This file uses centimeters as units for non-parametric coordinates.

g default
v -25.883961 -25.883961 25.883961
v 25.883961 -25.883961 25.883961
v -25.883961 25.883961 25.883961
v 25.883961 25.883961 25.883961
v -25.883961 25.883961 -25.883961
v 25.883961 25.883961 -25.883961
v -25.883961 -25.883961 -25.883961
v 25.883961 -25.883961 -25.883961
v -32.693208 32.693208 -0.000000
v 32.693208 0.000000 -32.693208
v 0.000000 -32.693208 -32.693208
v -32.693208 -0.000000 -32.693208
v 32.693208 -32.693208 0.000000
v -32.693208 -32.693208 0.000000
v 0.000000 -32.693208 32.693208
v 32.693208 0.000000 32.693208
v 0.000000 32.693208 32.693208
v -32.693208 0.000000 32.693208
v 32.693208 32.693208 0.000000
v 0.000000 32.693208 -32.693208
v 0.000000 0.000000 44.649837
v 0.000000 44.649837 -0.000000
v 0.000000 -0.000000 -44.649837
v 0.000000 -44.649837 0.000000
v 44.649837 0.000000 0.000000
v -44.649837 0.000000 -0.000000
v -30.443069 15.353894 -30.443069
v 30.443069 15.353895 -30.443069
v 17.824635 0.000000 -41.649644
v 30.443069 -15.353895 -30.443069
v 15.353895 -30.443069 -30.443069
v 0.000000 -17.824635 -41.649644
v -15.353895 -30.443069 -30.443069
v -30.443069 -15.353895 -30.443069
v 0.000000 -41.649644 -17.824635
v -17.824635 -41.649644 0.000000
v -30.443069 -30.443069 -15.353894
v 30.443069 -30.443069 -15.353895
v 17.824635 -41.649644 0.000000
v 30.443069 -30.443069 15.353895
v 0.000000 -41.649644 17.824635
v -30.443069 -30.443069 15.353895
v 41.649644 -17.824635 0.000000
v 41.649644 0.000000 17.824635
v 41.649644 0.000000 -17.824635
v 41.649644 17.824635 0.000000
v -41.649644 -17.824635 0.000000
v -41.649644 -0.000000 -17.824635
v -41.649644 0.000000 17.824635
v -41.649644 17.824635 0.000000
v -15.353895 -30.443069 30.443069
v 0.000000 -17.824635 41.649644
v -17.824635 0.000000 41.649644
v -30.443069 -15.353895 30.443069
v 15.353895 -30.443069 30.443069
v 30.443069 -15.353895 30.443069
v 17.824635 0.000000 41.649644
v 30.443069 15.353895 30.443069
v 15.353895 30.443069 30.443069
v 0.000000 17.824635 41.649644
v -15.353895 30.443069 30.443069
v -30.443069 15.353895 30.443069
v 0.000000 41.649644 17.824635
v -17.824635 41.649644 0.000000
v -30.443069 30.443069 15.353894
v 30.443069 30.443069 15.353895
v 17.824635 41.649644 0.000000
v 30.443069 30.443069 -15.353895
v 15.353895 30.443069 -30.443069
v 0.000000 41.649644 -17.824635
v -15.353895 30.443069 -30.443069
v -30.443069 30.443069 -15.353895
v 0.000000 17.824635 -41.649644
v -17.824635 0.000000 -41.649644
v -16.589266 -16.589266 38.825941
v 16.589266 -16.589266 38.825941
v 16.589266 16.589266 38.825941
v -16.589266 16.589266 38.825941
v -16.589266 38.825941 16.589266
v 16.589266 38.825941 16.589266
v 16.589266 38.825941 -16.589266
v -16.589266 38.825941 -16.589266
v -16.589266 16.589266 -38.825941
v 16.589266 16.589266 -38.825941
v 16.589266 -16.589266 -38.825941
v -16.589266 -16.589266 -38.825941
v -16.589266 -38.825941 -16.589266
v 16.589266 -38.825941 -16.589266
v 16.589266 -38.825941 16.589266
v -16.589266 -38.825941 16.589266
v 38.825941 -16.589266 16.589266
v 38.825941 -16.589266 -16.589266
v 38.825941 16.589266 -16.589266
v 38.825941 16.589266 16.589266
v -38.825941 -16.589266 -16.589266
v -38.825941 -16.589266 16.589266
v -38.825941 16.589266 16.589266
v -38.825941 16.589266 -16.589266
vt 0.376801 0.396314
vt 0.388092 0.961907
vt 0.433618 0.981618
vt 0.428277 0.921722
vt 0.426727 0.378051
vt 0.436660 0.433547
vt 0.368382 0.916381
vt 0.376801 0.438495
vt 0.500000 0.369038
vt 0.500000 0.991347
vt 0.500000 0.428598
vt 0.500000 0.500000
vt 0.436568 0.500000
vt 0.376801 0.500000
vt 0.573273 0.378051
vt 0.563340 0.433547
vt 0.623199 0.396314
vt 0.623199 0.438495
vt 0.623199 0.500000
vt 0.563432 0.500000
vt 0.563340 0.566453
vt 0.500000 0.927064
vt 0.500000 0.850000
vt 0.422936 0.850000
vt 0.500000 0.571402
vt 0.623199 0.561505
vt 0.358653 0.850000
vt 0.623199 0.603686
vt 0.573273 0.621949
vt 0.566381 0.981618
vt 0.500000 0.630962
vt 0.571722 0.921722
vt 0.611907 0.961907
vt 0.436660 0.566453
vt 0.631618 0.916382
vt 0.641347 0.850000
vt 0.376801 0.561505
vt 0.577063 0.850000
vt 0.571722 0.778278
vt 0.426727 0.621949
vt 0.500000 0.772937
vt 0.376801 0.603686
vt 0.130403 0.603686
vt 0.080478 0.621949
vt 0.070544 0.566453
vt 0.130403 0.561505
vt 0.007205 0.630962
vt 0.007205 0.571402
vt 0.007205 0.500000
vt 0.631618 0.783619
vt 0.070636 0.500000
vt 0.130403 0.500000
vt 0.869596 0.603686
vt 0.869596 0.561505
vt 0.869596 0.500000
vt 0.611907 0.738093
vt 0.007205 0.428598
vt 0.566381 0.718382
vt 0.869596 0.438495
vt 0.869596 0.396314
vt 0.500000 0.708653
vt 0.428277 0.778278
vt 0.007205 0.369038
vt 0.070544 0.433547
vt 0.368382 0.783619
vt 0.130403 0.438495
vt 0.080478 0.378051
vt 0.433618 0.718382
vt 0.130403 0.396314
vt 0.673124 0.378051
vt 0.388092 0.738093
vt 0.388092 0.038093
vt 0.683058 0.433547
vt 0.433618 0.018382
vt 0.428277 0.078278
vt 0.746398 0.369038
vt 0.368382 0.083619
vt 0.500000 0.008653
vt 0.746398 0.428598
vt 0.746398 0.500000
vt 0.682966 0.500000
vt 0.819671 0.378051
vt 0.809737 0.433547
vt 0.809829 0.500000
vt 0.809737 0.566453
vt 0.746398 0.571402
vt 0.819671 0.621949
vt 0.746398 0.630962
vt 0.683058 0.566453
vt 0.673124 0.621949
vt 0.180329 0.378051
vt 0.190263 0.433547
vt 0.253602 0.369038
vt 0.500000 0.072936
vt 0.253602 0.428598
vt 0.500000 0.150000
vt 0.422936 0.150000
vt 0.358653 0.150000
vt 0.566381 0.018382
vt 0.571722 0.078278
vt 0.611907 0.038093
vt 0.631618 0.083619
vt 0.253602 0.500000
vt 0.641347 0.150000
vt 0.577063 0.150000
vt 0.571722 0.221722
vt 0.500000 0.227064
vt 0.631618 0.216381
vt 0.611907 0.261907
vt 0.566381 0.281618
vt 0.500000 0.291347
vt 0.428277 0.221722
vt 0.190171 0.500000
vt 0.326875 0.378051
vt 0.316942 0.433547
vt 0.317034 0.500000
vt 0.368382 0.216381
vt 0.433618 0.281618
vt 0.388092 0.261907
vt 0.316942 0.566453
vt 0.253602 0.571402
vt 0.326875 0.621949
vt 0.253602 0.630962
vt 0.190263 0.566453
vt 0.180329 0.621949
vt 0.992795 0.630962
vt 0.919522 0.621949
vt 0.992795 0.571402
vt 0.929456 0.566453
vt 0.992795 0.500000
vt 0.929363 0.500000
vt 0.992795 0.428598
vt 0.929456 0.433547
vt 0.919522 0.378051
vt 0.992795 0.369038
vn 0.577350 0.577350 -0.577350
vn 0.671526 0.313219 -0.671526
vn 0.329322 0.329322 -0.884926
vn 0.313219 0.671526 -0.671526
vn -0.000000 0.345160 -0.938544
vn -0.000000 0.707107 -0.707107
vn 0.345160 0.000000 -0.938544
vn 0.000000 0.000000 -1.000000
vn 0.707107 0.000000 -0.707107
vn -0.329322 0.329322 -0.884926
vn -0.313219 0.671526 -0.671526
vn -0.671526 0.313220 -0.671526
vn -0.577350 0.577350 -0.577350
vn -0.345160 0.000000 -0.938544
vn -0.707107 0.000000 -0.707107
vn 0.000000 -0.345160 -0.938544
vn -0.329322 -0.329322 -0.884926
vn -0.671526 -0.313219 -0.671526
vn -0.313220 -0.671526 -0.671526
vn -0.577350 -0.577350 -0.577350
vn 0.000000 -0.707107 -0.707107
vn 0.671526 -0.313220 -0.671526
vn 0.329322 -0.329322 -0.884926
vn 0.313220 -0.671526 -0.671526
vn 0.577350 -0.577350 -0.577350
vn 0.671526 -0.671526 -0.313219
vn 0.329322 -0.884926 -0.329322
vn 0.000000 -0.938544 -0.345160
vn 0.345160 -0.938544 -0.000000
vn -0.000000 -1.000000 0.000000
vn 0.707107 -0.707107 0.000000
vn -0.329322 -0.884926 -0.329322
vn -0.671526 -0.671526 -0.313219
vn -0.345160 -0.938544 0.000000
vn -0.707107 -0.707107 -0.000000
vn 0.000000 -0.938544 0.345160
vn -0.329322 -0.884926 0.329322
vn -0.671526 -0.671526 0.313220
vn -0.313219 -0.671526 0.671526
vn -0.577350 -0.577350 0.577350
vn -0.000000 -0.707107 0.707107
vn 0.671526 -0.671526 0.313219
vn 0.329322 -0.884926 0.329322
vn 0.313220 -0.671526 0.671526
vn 0.577350 -0.577350 0.577350
vn 0.671526 -0.313219 0.671526
vn 0.329322 -0.329322 0.884926
vn -0.000000 -0.345160 0.938544
vn 0.345160 0.000000 0.938544
vn 0.000000 -0.000000 1.000000
vn 0.707107 0.000000 0.707107
vn -0.329322 -0.329322 0.884926
vn -0.671526 -0.313220 0.671526
vn -0.345160 -0.000000 0.938544
vn -0.707107 -0.000000 0.707107
vn 0.000000 0.345160 0.938544
vn -0.329322 0.329322 0.884926
vn -0.671526 0.313219 0.671526
vn -0.313220 0.671526 0.671526
vn -0.577350 0.577350 0.577350
vn 0.000000 0.707107 0.707107
vn 0.671526 0.313220 0.671526
vn 0.329322 0.329322 0.884926
vn 0.313220 0.671526 0.671526
vn 0.577350 0.577350 0.577350
vn 0.671526 0.671526 0.313219
vn 0.329322 0.884926 0.329322
vn 0.000000 0.938544 0.345160
vn 0.345160 0.938544 0.000000
vn -0.000000 1.000000 0.000000
vn 0.707107 0.707107 0.000000
vn -0.329322 0.884926 0.329322
vn -0.671526 0.671526 0.313219
vn -0.345160 0.938544 -0.000000
vn -0.707107 0.707107 -0.000000
vn 0.000000 0.938544 -0.345160
vn -0.329322 0.884926 -0.329322
vn -0.671526 0.671526 -0.313220
vn 0.671526 0.671526 -0.313220
vn 0.329322 0.884926 -0.329322
vn -0.884926 0.329322 -0.329322
vn -0.938544 0.345160 -0.000000
vn -0.938544 -0.000000 -0.345160
vn -1.000000 0.000000 0.000000
vn -0.884926 0.329322 0.329322
vn -0.938544 -0.000000 0.345160
vn -0.938544 -0.345160 0.000000
vn -0.884926 -0.329322 0.329322
vn -0.884926 -0.329322 -0.329322
vn 0.884926 0.329322 0.329322
vn 0.938544 0.345160 0.000000
vn 0.938544 -0.000000 0.345160
vn 1.000000 0.000000 -0.000000
vn 0.884926 0.329322 -0.329322
vn 0.938544 -0.000000 -0.345160
vn 0.938544 -0.345160 0.000000
vn 0.884926 -0.329322 -0.329322
vn 0.884926 -0.329322 0.329322
s 1
g pCube1
f 1/1/1 54/8/2 75/6/3 51/5/4
f 51/5/4 75/6/3 52/11/5 15/9/6
f 75/6/3 53/13/7 21/12/8 52/11/5
f 54/8/2 18/14/9 53/13/7 75/6/3
f 15/9/6 52/11/5 76/16/10 55/15/11
f 55/15/11 76/16/10 56/18/12 2/17/13
f 76/16/10 57/20/14 16/19/15 56/18/12
f 52/11/5 21/12/8 57/20/14 76/16/10
f 21/12/8 60/25/16 77/21/17 57/20/14
f 57/20/14 77/21/17 58/26/18 16/19/15
f 77/21/17 59/29/19 4/28/20 58/26/18
f 60/25/16 17/31/21 59/29/19 77/21/17
f 18/14/9 62/37/22 78/34/23 53/13/7
f 53/13/7 78/34/23 60/25/16 21/12/8
f 78/34/23 61/40/24 17/31/21 60/25/16
f 62/37/22 3/42/25 61/40/24 78/34/23
f 3/2/25 65/7/26 79/4/27 61/3/24
f 61/3/24 79/4/27 63/22/28 17/10/21
f 79/4/27 64/24/29 22/23/30 63/22/28
f 65/7/26 9/27/31 64/24/29 79/4/27
f 17/10/21 63/22/28 80/32/32 59/30/19
f 59/30/19 80/32/32 66/35/33 4/33/20
f 80/32/32 67/38/34 19/36/35 66/35/33
f 63/22/28 22/23/30 67/38/34 80/32/32
f 22/23/30 70/41/36 81/39/37 67/38/34
f 67/38/34 81/39/37 68/50/38 19/36/35
f 81/39/37 69/58/39 6/56/40 68/50/38
f 70/41/36 20/61/41 69/58/39 81/39/37
f 9/27/31 72/65/42 82/62/43 64/24/29
f 64/24/29 82/62/43 70/41/36 22/23/30
f 82/62/43 71/68/44 20/61/41 70/41/36
f 72/65/42 5/71/45 71/68/44 82/62/43
f 5/43/45 27/46/46 83/45/47 71/44/44
f 71/44/44 83/45/47 73/48/48 20/47/41
f 83/45/47 74/51/49 23/49/50 73/48/48
f 27/46/46 12/52/51 74/51/49 83/45/47
f 20/126/41 73/128/48 84/129/52 69/127/39
f 69/127/39 84/129/52 28/54/53 6/53/40
f 84/129/52 29/131/54 10/55/55 28/54/53
f 73/128/48 23/130/50 29/131/54 84/129/52
f 23/130/50 32/132/56 85/133/57 29/131/54
f 29/131/54 85/133/57 30/59/58 10/55/55
f 85/133/57 31/134/59 8/60/60 30/59/58
f 32/132/56 11/135/61 31/134/59 85/133/57
f 12/52/51 34/66/62 86/64/63 74/51/49
f 74/51/49 86/64/63 32/57/56 23/49/50
f 86/64/63 33/67/64 11/63/61 32/57/56
f 34/66/62 7/69/65 33/67/64 86/64/63
f 7/72/65 37/77/66 87/75/67 33/74/64
f 33/74/64 87/75/67 35/94/68 11/78/61
f 87/75/67 36/97/69 24/96/70 35/94/68
f 37/77/66 14/98/71 36/97/69 87/75/67
f 11/78/61 35/94/68 88/100/72 31/99/59
f 31/99/59 88/100/72 38/102/73 8/101/60
f 88/100/72 39/105/74 13/104/75 38/102/73
f 35/94/68 24/96/70 39/105/74 88/100/72
f 24/96/70 41/107/76 89/106/77 39/105/74
f 39/105/74 89/106/77 40/108/78 13/104/75
f 89/106/77 55/110/11 2/109/13 40/108/78
f 41/107/76 15/111/6 55/110/11 89/106/77
f 14/98/71 42/117/79 90/112/80 36/97/69
f 36/97/69 90/112/80 41/107/76 24/96/70
f 90/112/80 51/118/4 15/111/6 41/107/76
f 42/117/79 1/119/1 51/118/4 90/112/80
f 2/17/13 56/18/12 91/73/81 40/70/78
f 40/70/78 91/73/81 43/79/82 13/76/75
f 91/73/81 44/81/83 25/80/84 43/79/82
f 56/18/12 16/19/15 44/81/83 91/73/81
f 13/76/75 43/79/82 92/83/85 38/82/73
f 38/82/73 92/83/85 30/59/58 8/60/60
f 92/83/85 45/84/86 10/55/55 30/59/58
f 43/79/82 25/80/84 45/84/86 92/83/85
f 25/80/84 46/86/87 93/85/88 45/84/86
f 45/84/86 93/85/88 28/54/53 10/55/55
f 93/85/88 68/87/38 6/53/40 28/54/53
f 46/86/87 19/88/35 68/87/38 93/85/88
f 16/19/15 58/26/18 94/89/89 44/81/83
f 44/81/83 94/89/89 46/86/87 25/80/84
f 94/89/89 66/90/33 19/88/35 46/86/87
f 58/26/18 4/28/20 66/90/33 94/89/89
f 7/69/65 34/66/62 95/92/90 37/91/66
f 37/91/66 95/92/90 47/95/91 14/93/71
f 95/92/90 48/113/92 26/103/93 47/95/91
f 34/66/62 12/52/51 48/113/92 95/92/90
f 14/93/71 47/95/91 96/115/94 42/114/79
f 42/114/79 96/115/94 54/8/2 1/1/1
f 96/115/94 49/116/95 18/14/9 54/8/2
f 47/95/91 26/103/93 49/116/95 96/115/94
f 26/103/93 50/121/96 97/120/97 49/116/95
f 49/116/95 97/120/97 62/37/22 18/14/9
f 97/120/97 65/122/26 3/42/25 62/37/22
f 50/121/96 9/123/31 65/122/26 97/120/97
f 12/52/51 27/46/46 98/124/98 48/113/92
f 48/113/92 98/124/98 50/121/96 26/103/93
f 98/124/98 72/125/42 9/123/31 50/121/96
f 27/46/46 5/43/45 72/125/42 98/124/98
